# xmcd
#
# Track frame offsets:
#        150
#        11729
#        23366
#        36265
#        49067
#        62361
#        77966
#        93363
#        110156
#        126726
#        145105
#        160288
#        180287
#        193313
#        210288
#        229078
#        250448
#        269084
#        288700
#        306848
#
# Disc length: 4351 seconds
#
# Revision: 0
# Processed by: cddbd v1.5.1PL0 Copyright (c) Steve Scherf et al.
# Submitted via: ExactAudioCopy v0.95b2
#
DISCID=2510fd14
DTITLE=Diana Ross - One Woman
DYEAR=1900
DGENRE=Motown
TTITLE0=Where Did Our Love Go
TTITLE1=Baby Love
TTITLE2=You Can't Hurry Love
TTITLE3=Reflections
TTITLE4=Reach Out And Touch
TTITLE5=Ain't No Mountain High Enough
TTITLE6=Touch Me In The Morning
TTITLE7=Love Hangover
TTITLE8=I'm Still Waiting
TTITLE9=Upside Down
TTITLE10=Theme From Mohogany (Do You Know Where You're Going To?)
TTITLE11=Endless Love
TTITLE12=Why Do Fools Fall In Love?
TTITLE13=Chain Reaction
TTITLE14=When You Tell Me That You Love Me
TTITLE15=One Shining Moment
TTITLE16=If We Hold On Together
TTITLE17=The Best Years Of My Life
TTITLE18=Your Love
TTITLE19=Lets Make Every Moment Count
EXTD=
EXTT0=
EXTT1=
EXTT2=
EXTT3=
EXTT4=
EXTT5=
EXTT6=
EXTT7=
EXTT8=
EXTT9=
EXTT10=
EXTT11=
EXTT12=
EXTT13=
EXTT14=
EXTT15=
EXTT16=
EXTT17=
EXTT18=
EXTT19=
PLAYORDER=
